<svg width="26" height="29" viewBox="0 0 26 29" fill="none" xmlns="http://www.w3.org/2000/svg">
<g clip-path="url(#clip0_190_10246)">
<mask id="mask0_190_10246" style="mask-type:alpha" maskUnits="userSpaceOnUse" x="-1" y="0" width="28" height="29">
<path d="M24.7855 22.3586L14.6549 28.1863C13.5427 28.8261 12.1578 28.8209 11.0507 28.1728L1.18996 22.4005C0.312617 21.8869 -0.223633 20.9656 -0.223633 19.9717V8.57118C-0.223633 7.50221 0.395843 6.52403 1.37895 6.04069L11.5409 1.04477C12.364 0.64018 13.3356 0.635943 14.1623 1.03334L24.5922 6.04689C25.5882 6.52569 26.2184 7.51061 26.2184 8.5888V19.9185C26.2184 20.9202 25.6738 21.8476 24.7855 22.3586Z" fill="#C4C4C4"/>
</mask>
<g mask="url(#mask0_190_10246)">
<path d="M13.0039 15.4444L26.1042 8.29688V19.9795C26.1042 20.8877 25.4675 21.9925 24.6575 22.4898L13.0039 29.645V15.4444Z" fill="#FDC500"/>
<path d="M-0.0917969 8.30859L13.0032 15.4412V29.6419L1.35487 22.4899C0.544839 21.9925 -0.0917969 20.8878 -0.0917969 19.9796V8.30859Z" fill="#FF6F2C"/>
<path d="M11.0151 1.60116C12.1252 1.0026 13.8819 1.00275 14.9916 1.60154L25.2752 7.15055C26.4368 7.7774 26.446 8.81739 25.2955 9.45068L15.014 15.1095C13.8983 15.7236 12.1096 15.7232 10.9947 15.1088L0.714999 9.44334C-0.434565 8.80975 -0.424424 7.77007 0.737308 7.14359L11.0151 1.60116Z" fill="#F8DB46"/>
<path fill-rule="evenodd" clip-rule="evenodd" d="M12.9896 -4.57031L11.8786 0.531084L11.8713 0.550527C11.6812 1.05997 12.0683 1.59869 12.6246 1.59869H13.3868V5.56626C12.653 5.95156 11.0596 6.70725 11.0596 7.57763C11.0596 8.83867 13.2026 9.86103 14.4966 9.86103C15.7906 9.86103 16.8396 8.83867 16.8396 7.57763C16.8396 6.70725 16.3402 5.95156 15.6064 5.56619V1.59869H16.3686C16.9249 1.59869 17.312 1.05997 17.1219 0.550527L17.1146 0.531084L15.2408 -3.40071C14.9745 -4.05542 13.4294 -4.57031 12.9896 -4.57031Z" fill="#B31717"/>
<path fill-rule="evenodd" clip-rule="evenodd" d="M12.2366 -4.09881L10.3628 -0.166988L10.3556 -0.147545C10.1655 0.361897 10.5526 0.90054 11.1088 0.90054H11.8711V4.86812C11.1373 5.25349 10.638 6.00918 10.638 6.87948C10.638 8.14061 11.6869 9.16297 12.9809 9.16297C14.2749 9.16297 15.3239 8.14061 15.3239 6.87948C15.3239 6.00918 14.8244 5.25342 14.0907 4.86812V0.90054H14.8528C15.4091 0.90054 15.7962 0.361897 15.6062 -0.147545L15.5989 -0.166988L13.7251 -4.09881C13.4589 -4.75352 12.5029 -4.75352 12.2366 -4.09881Z" fill="#F05454"/>
<path fill-rule="evenodd" clip-rule="evenodd" d="M32.7304 17.0689L29.225 16.6804L29.2046 16.6733C28.6726 16.4858 28.1102 16.8676 28.1102 17.4161V18.1677H23.9674C23.565 17.4442 22.776 16.9517 21.8672 16.9517C20.5504 16.9517 18.7656 16.8917 18.7656 18.1677C18.7656 19.4438 19.738 21.5727 21.8672 21.5727C22.776 21.5727 23.5651 21.0802 23.9674 20.3566H28.1102H27.4395C27.4395 20.9051 28.1102 22.1137 29.2046 21.8511L29.225 21.8439L32.9947 20.0487C33.6783 19.7861 33.4141 17.3314 32.7304 17.0689Z" fill="#0A52A8"/>
<path fill-rule="evenodd" clip-rule="evenodd" d="M32.5779 16.9072L28.4725 15.0594L28.4522 15.0522C27.9202 14.8647 27.3578 15.2465 27.3578 15.795V16.5467H23.2149C22.8126 15.8231 22.0236 15.3306 21.1148 15.3306C19.798 15.3306 18.7305 16.3651 18.7305 17.6412C18.7305 18.9172 19.798 19.9517 21.1148 19.9517C22.0236 19.9517 22.8126 19.4592 23.215 18.7355H27.3578V19.4871C27.3578 20.0357 27.9202 20.4174 28.4522 20.23L28.4725 20.2229L32.5779 18.3751C33.2615 18.1125 33.2615 17.1698 32.5779 16.9072Z" fill="#4497F9"/>
<path fill-rule="evenodd" clip-rule="evenodd" d="M-5.5996 19.9884L-1.55471 21.8332L-1.53466 21.8403C-1.01058 22.0275 -0.456389 21.6463 -0.456389 21.0987V20.3483H3.31398C3.71045 21.0707 4.48788 21.5624 5.38324 21.5624C6.68062 21.5624 7.73237 20.5296 7.73237 19.2557C7.73237 17.9817 7.23363 16.9292 6.20388 15.9844C5.30852 15.9844 3.71037 17.4407 3.31398 18.1631H-0.456389V17.4127C-0.456389 16.8651 -1.01058 16.484 -1.53466 16.6711L-1.55471 16.6783L-6.72419 17.4127C-7.39775 17.6748 -6.27316 19.7263 -5.5996 19.9884Z" fill="#1E7B28"/>
<path fill-rule="evenodd" clip-rule="evenodd" d="M-6.42354 18.3694L-2.37866 20.2141L-2.35861 20.2213C-1.83453 20.4085 -1.28034 20.0274 -1.28034 19.4797V18.7293H2.49002C2.8865 19.4517 3.66392 19.9434 4.55929 19.9434C5.85666 19.9434 6.90841 18.9107 6.90841 17.6367C6.90841 16.3628 5.85666 15.3301 4.55929 15.3301C3.66392 15.3301 2.88642 15.8217 2.49002 16.5441H-1.28034V15.7937C-1.28034 15.2461 -1.83453 14.8649 -2.35861 15.0521L-2.37866 15.0592L-6.42354 16.904C-7.0971 17.1661 -7.0971 18.1073 -6.42354 18.3694Z" fill="#4DC959"/>
</g>
</g>
<defs>
<clipPath id="clip0_190_10246">
<rect width="26" height="29" fill="white"/>
</clipPath>
</defs>
</svg>
