<svg width="31" height="22" viewBox="0 0 31 22" fill="none" xmlns="http://www.w3.org/2000/svg">
<g clip-path="url(#clip0_190_10226)">
<path d="M0.695906 16.0513L3.62944 18.6746C3.91792 18.9301 4.58546 19.3847 5.19628 19.6055L12.1901 21.7396C12.9699 21.9773 13.9485 21.9313 14.6363 21.6245L30.1066 14.7223C31.0609 14.2965 30.8945 12.9586 30.8945 12.2025L30.9596 8.41772L16.5556 5.84185C15.6654 5.37187 14.202 5.40855 13.4 5.92084L0.114245 9.38386V12.7639C0.114245 14.537 -0.167479 15.3394 0.695906 16.0513Z" fill="#0A52A8"/>
<path d="M0.405202 9.98304L4.32448 13.6519C4.51212 13.8276 4.78553 13.9734 5.11628 14.0743L12.3324 16.2747C13.1122 16.5125 14.0908 16.4665 14.7786 16.1596L30.2488 9.25741C31.2032 8.83161 31.2639 8.06609 30.3803 7.59971L16.6979 0.377007C15.8076 -0.0929693 14.3443 -0.0562964 13.5423 0.455999L0.619113 8.71148C0.0561611 9.07113 -0.0288818 9.57666 0.405202 9.98304Z" fill="#4497F9"/>
<path d="M24.1702 6.465C24.6389 6.16958 24.5394 8.04104 24.5394 8.63965C24.5712 9.17888 24.2086 9.64656 23.3065 10.1228L21.4797 11.0809C21.4797 11.1846 21.4843 11.2872 21.4797 11.6307C21.4761 11.9088 21.5291 12.0846 21.3395 12.1846L19.9218 12.933C19.7323 13.0331 19.4411 13.0261 19.2522 12.9454C19.0288 12.85 18.8271 12.8021 18.646 12.7909C18.4229 12.777 18.1949 12.8211 17.9548 12.9478L15.9771 13.9918C15.0745 14.4683 14.1317 14.6942 13.1545 14.6402C12.1971 14.5873 11.2859 14.3254 10.4213 13.869C10.1072 13.6737 10.1714 13.2103 10.1714 12.8761V11.8234C10.3575 11.7253 11.918 12.0329 12.104 12.1312L12.2182 12.1915C12.4838 12.3316 12.7093 12.3784 12.9002 12.3686L12.906 12.3684L12.9118 12.3683C13.1183 12.3647 13.34 12.3104 13.5782 12.1846L15.8117 11.7346C16.3355 11.4581 16.8633 11.3008 17.3936 11.2904C17.8134 11.2822 17.1596 10.6988 17.5623 10.8433C17.2939 10.6276 18.2252 11.0647 18.2407 10.8433C18.2604 10.5633 18.0632 9.3368 18.3051 8.92664L21.0728 8.95735C21.3209 8.82636 21.427 8.70704 21.4336 8.5987L21.4337 8.59708L21.4339 8.59547C21.4461 8.49861 21.3536 8.38077 21.0858 8.23942L20.9715 8.17911C20.7855 8.08094 20.7855 7.92172 20.9715 7.82349L20.8446 7.32131C20.8446 6.81621 20.8446 6.62236 20.8446 6.25781L24.1702 6.465Z" fill="#0A52A8"/>
<path d="M4.80371 10.2333C4.90401 10.7387 5.40014 11.2197 6.26475 11.6761L6.37896 11.7364C6.56504 11.8346 6.86668 11.8346 7.05268 11.7364L8.27852 11.104C8.5275 10.9522 8.48359 10.7547 8.48359 10.5552C8.48359 10.2614 8.48359 10.1285 8.48359 9.81777L10.3081 8.8306C10.8318 8.5541 11.1299 8.27549 11.1495 7.99551C11.165 7.77392 11.1495 7.69506 11.1495 7.42731C11.4285 7.54837 11.5772 7.55656 11.9966 7.54837C12.5269 7.53801 13.0548 7.38071 13.5786 7.10421L15.5693 6.05337C15.818 5.92207 16.041 5.86355 16.2387 5.85604C16.4347 5.85331 16.6638 5.90643 16.9292 6.04654L17.0435 6.10686C17.2295 6.20508 17.5311 6.20508 17.7171 6.10686L18.9174 5.47685C19.1983 5.327 19.142 4.98751 19.142 4.62048V3.47818C18.2777 3.02192 17.1132 3.94952 16.1561 3.89647C15.1865 3.83758 14.2636 4.39809 13.3614 4.87427L10.8692 5.41989C10.6293 5.54653 10.5312 5.73604 10.3081 5.72214C10.127 5.71091 8.20034 5.09896 7.97701 5.00358C7.78816 4.92292 7.9196 6.04511 7.9196 6.42133L8.03775 6.66097C7.84828 6.761 7.86158 6.91476 8.0144 7.01442C8.19512 7.13238 8.28578 7.23886 8.30709 7.33442C8.33335 7.45219 8.24981 7.57257 8.00979 7.69928L4.80371 8.29149C4.80371 8.60938 4.80371 9.58607 4.80371 10.2333Z" fill="#0A52A8"/>
<path d="M23.073 5.44258C23.9373 5.89884 24.4334 6.37961 24.5339 6.88484C24.6455 7.39664 24.2207 7.8923 23.3187 8.36855L21.3797 9.39208C21.1396 9.51879 21.0561 9.63917 21.0824 9.75695C21.1037 9.8525 21.1943 9.95898 21.3751 10.0769C21.5279 10.1766 21.5412 10.3304 21.3517 10.4304L19.934 11.1788C19.7444 11.2788 19.4532 11.2718 19.2643 11.1911C19.041 11.0958 18.8392 11.0479 18.6582 11.0366C18.4351 11.0228 18.207 11.0668 17.967 11.1936L15.9892 12.2376C15.0866 12.7141 14.1438 12.94 13.1666 12.886C12.2092 12.833 11.2981 12.5712 10.4335 12.1148L10.3192 12.0545C10.1332 11.9562 10.1332 11.797 10.3192 11.6988L11.6206 11.0118C11.8066 10.9136 12.1083 10.9136 12.2943 11.0118L12.4086 11.0721C12.6742 11.2123 12.8996 11.2591 13.0905 11.2493L13.0963 11.249L13.1021 11.2489C13.3087 11.2454 13.5304 11.191 13.7685 11.0653L15.8238 9.98033C16.3476 9.70383 16.8754 9.54653 17.4058 9.53617C17.8256 9.52798 18.2381 9.60082 18.6407 9.74528C18.3724 9.52959 18.2374 9.31042 18.2529 9.08902C18.2725 8.80905 18.5705 8.53044 19.0943 8.25394L21.085 7.2031C21.3331 7.07211 21.4391 6.95278 21.4458 6.8445L21.4458 6.84283L21.446 6.84121C21.4583 6.74435 21.3657 6.62658 21.0979 6.48523L20.9836 6.42491C20.7976 6.32669 20.7976 6.16746 20.9836 6.06923L22.2851 5.38226C22.4711 5.28404 22.7727 5.28404 22.9588 5.38226L23.073 5.44258Z" fill="#F2F8FF"/>
<path d="M4.81564 8.4785C4.91601 8.98397 5.41207 9.46493 6.27668 9.92131L6.39096 9.98163C6.57696 10.0799 6.8786 10.0799 7.06461 9.98163L8.36604 9.29466C8.55212 9.19643 8.55212 9.03721 8.36604 8.93898L8.25176 8.87873C7.98718 8.73899 7.89109 8.61644 7.90371 8.50884C7.91714 8.40342 8.0247 8.2875 8.26473 8.1608L10.32 7.07583C10.8438 6.79933 11.1418 6.52072 11.1614 6.24074C11.177 6.01916 11.0389 5.80142 10.7653 5.5889C11.1739 5.73056 11.5892 5.80179 12.0085 5.7936C12.5389 5.78324 13.0667 5.62594 13.5905 5.34944L15.5812 4.2986C15.83 4.1673 16.053 4.10879 16.2507 4.10128C16.4466 4.09855 16.6757 4.15166 16.9411 4.29178L17.0554 4.35209C17.2414 4.45032 17.543 4.45032 17.7291 4.35209L19.0305 3.66512C19.2166 3.56689 19.2166 3.40767 19.0305 3.30944L18.9163 3.24913C18.0519 2.79287 17.1411 2.53107 16.184 2.47796C15.2145 2.41913 14.2755 2.64332 13.3734 3.1195L11.4344 4.14304C11.1944 4.26975 10.9664 4.31387 10.7433 4.29997C10.5621 4.28874 10.3605 4.24089 10.1371 4.14546C9.94821 4.06479 9.65695 4.05778 9.46749 4.15781L8.04974 4.90621C7.86021 5.00623 7.87351 5.16 8.02633 5.25971C8.20704 5.37761 8.29771 5.48409 8.31901 5.57965C8.34528 5.69749 8.26174 5.81786 8.02178 5.94451L6.04399 6.98852C5.14137 7.46502 4.71331 7.96267 4.81564 8.4785Z" fill="#F2F8FF"/>
</g>
<defs>
<clipPath id="clip0_190_10226">
<rect width="31" height="22" fill="white"/>
</clipPath>
</defs>
</svg>
