<svg width="24" height="33" viewBox="0 0 24 33" fill="none" xmlns="http://www.w3.org/2000/svg">
<mask id="mask0_190_10271" style="mask-type:alpha" maskUnits="userSpaceOnUse" x="0" y="7" width="24" height="26">
<path d="M22.7215 26.4178L13.2919 32.0705C12.5008 32.5447 11.5166 32.5447 10.7254 32.0705L1.29579 26.4178C0.532466 25.9602 0.0644531 25.1299 0.0644531 24.2332V15.3008C0.0644531 14.3816 0.555933 13.5342 1.34969 13.0848L10.7793 7.74613C11.543 7.31379 12.4744 7.31379 13.2381 7.74613L22.6677 13.0848C23.4614 13.5342 23.9529 14.3816 23.9529 15.3008V24.2332C23.9529 25.1299 23.4849 25.9602 22.7215 26.4178Z" fill="#C4C4C4"/>
</mask>
<g mask="url(#mask0_190_10271)">
<path d="M1.04954 26.2679L12.0086 32.8375V21.9952L0.0644531 14.668V24.5202C0.0644531 25.2376 0.438821 25.9018 1.04954 26.2679Z" fill="#AD2667"/>
<path d="M12.0088 22.0122L23.953 14.6875V24.5239C23.953 25.2412 23.5786 25.9055 22.9679 26.2716L12.0088 32.8411V22.0122Z" fill="#F84098"/>
<path d="M0.804593 13.4115L10.7956 7.90415C11.5435 7.49188 12.4471 7.49018 13.1965 7.8997L23.203 13.3676C24.2445 13.9368 24.2608 15.4407 23.2318 16.0327L13.2365 21.7828C12.4665 22.2257 11.5226 22.2266 10.7519 21.7851L0.783179 16.0752C-0.245908 15.4858 -0.233734 13.9839 0.804593 13.4115Z" fill="#FFE3F1"/>
</g>
<mask id="mask1_190_10271" style="mask-type:alpha" maskUnits="userSpaceOnUse" x="4" y="0" width="16" height="19">
<path d="M4.58666 13.7663L11.3992 1.25354C11.7413 0.624962 12.6417 0.643653 12.9581 1.2859L19.1293 13.814C19.3335 14.2286 19.1884 14.7322 18.7958 14.9713L13.6507 18.1048C12.758 18.6485 11.6467 18.6728 10.7315 18.1685L4.93631 14.9752C4.50856 14.7395 4.35184 14.1976 4.58666 13.7663Z" fill="#AD2667"/>
</mask>
<g mask="url(#mask1_190_10271)">
<path d="M4.10547 14.535L12.2095 19.0531V-0.269531L4.10547 14.535Z" fill="#AD2667"/>
<path d="M12.209 19.0531L19.5766 14.7354L12.209 -0.269531V19.0531Z" fill="#F84098"/>
</g>
</svg>
