<svg width="16" height="18" viewBox="0 0 16 18" fill="none" xmlns="http://www.w3.org/2000/svg">
<path opacity="0.2" d="M15.5 8.24835V12.4092C15.5 14.9892 15.5 16.28 14.8883 16.8434C14.5967 17.1125 14.2283 17.2817 13.8358 17.3267C13.0133 17.4209 12.0525 16.5709 10.1317 14.8717C9.28167 14.1209 8.8575 13.745 8.36667 13.6467C8.12466 13.5979 7.87534 13.5979 7.63333 13.6467C7.14167 13.745 6.7175 14.1209 5.86833 14.8717C3.9475 16.5709 2.98667 17.4209 2.16417 17.3259C1.77103 17.2808 1.40243 17.1118 1.11167 16.8434C0.5 16.28 0.5 14.99 0.5 12.4092V8.24752C0.5 4.67502 0.5 2.88752 1.59833 1.77752C2.69667 0.666687 4.465 0.666687 8 0.666687C11.5358 0.666687 13.3033 0.666687 14.4017 1.77669C15.5 2.88752 15.5 4.67502 15.5 8.24835Z" fill="white"/>
</svg>
