<svg width="24" height="25" viewBox="0 0 24 25" fill="none" xmlns="http://www.w3.org/2000/svg">
<path d="M12.0001 3.5C10.4387 3.49947 8.90398 3.90519 7.5468 4.67727C6.18962 5.44936 5.05666 6.56125 4.25924 7.9037C3.46182 9.24615 3.02738 10.773 2.9986 12.3341C2.96982 13.8953 3.3477 15.4371 4.0951 16.808L3.0301 20.543C2.99263 20.6742 2.99163 20.813 3.02721 20.9447C3.0628 21.0764 3.13362 21.1959 3.23205 21.2903C3.33049 21.3847 3.45281 21.4505 3.58585 21.4806C3.71889 21.5107 3.85762 21.5039 3.9871 21.461L7.4941 20.2925C8.68939 20.9832 10.0276 21.3897 11.4051 21.4805C12.7826 21.5713 14.1625 21.344 15.4382 20.8162C16.7138 20.2884 17.8509 19.4742 18.7615 18.4366C19.6721 17.399 20.3318 16.1658 20.6896 14.8325C21.0474 13.4992 21.0936 12.1014 20.8248 10.7473C20.5559 9.39323 19.9792 8.11914 19.1392 7.02362C18.2992 5.9281 17.2184 5.04051 15.9804 4.4295C14.7425 3.8185 13.3806 3.50046 12.0001 3.5ZM9.0001 11C9.0001 10.8011 9.07912 10.6103 9.21977 10.4697C9.36042 10.329 9.55119 10.25 9.7501 10.25H14.2501C14.449 10.25 14.6398 10.329 14.7804 10.4697C14.9211 10.6103 15.0001 10.8011 15.0001 11C15.0001 11.1989 14.9211 11.3897 14.7804 11.5303C14.6398 11.671 14.449 11.75 14.2501 11.75H9.7501C9.55119 11.75 9.36042 11.671 9.21977 11.5303C9.07912 11.3897 9.0001 11.1989 9.0001 11ZM9.7501 13.25H12.7501C12.949 13.25 13.1398 13.329 13.2804 13.4697C13.4211 13.6103 13.5001 13.8011 13.5001 14C13.5001 14.1989 13.4211 14.3897 13.2804 14.5303C13.1398 14.671 12.949 14.75 12.7501 14.75H9.7501C9.55119 14.75 9.36042 14.671 9.21977 14.5303C9.07912 14.3897 9.0001 14.1989 9.0001 14C9.0001 13.8011 9.07912 13.6103 9.21977 13.4697C9.36042 13.329 9.55119 13.25 9.7501 13.25Z" fill="white"/>
</svg>
