<svg width="25" height="25" viewBox="0 0 25 25" fill="none" xmlns="http://www.w3.org/2000/svg">
<path d="M10.3147 19.3568C10.8147 19.2511 13.8608 19.2511 14.3608 19.3568C14.7881 19.4555 15.2503 19.6862 15.2503 20.1897C15.2254 20.6691 14.9441 21.0942 14.5555 21.3641C14.0517 21.7569 13.4603 22.0057 12.8421 22.0953C12.5002 22.1396 12.1643 22.1406 11.8344 22.0953C11.2152 22.0057 10.6238 21.7569 10.1209 21.3631C9.73135 21.0942 9.45008 20.6691 9.42524 20.1897C9.42524 19.6862 9.88738 19.4555 10.3147 19.3568ZM12.3968 2.12891C14.4769 2.12891 16.6018 3.11593 17.864 4.75357C18.683 5.80807 19.0586 6.86156 19.0586 8.49921V8.92524C19.0586 10.1812 19.3906 10.9214 20.1211 11.7745C20.6747 12.403 20.8516 13.2097 20.8516 14.0849C20.8516 14.9591 20.5643 15.789 19.9889 16.4628C19.2355 17.2706 18.1731 17.7862 17.0888 17.8759C15.5175 18.0098 13.9452 18.1226 12.3521 18.1226C10.7579 18.1226 9.18661 18.0552 7.61532 17.8759C6.53002 17.7862 5.46758 17.2706 4.71523 16.4628C4.13978 15.789 3.85156 14.9591 3.85156 14.0849C3.85156 13.2097 4.02946 12.403 4.58205 11.7745C5.3354 10.9214 5.64548 10.1812 5.64548 8.92524V8.49921C5.64548 6.81725 6.06489 5.71742 6.92856 4.64077C8.21263 3.0706 10.2709 2.12891 12.3073 2.12891H12.3968Z"/>
</svg>
