<svg width="17" height="18" viewBox="0 0 17 18" fill="none" xmlns="http://www.w3.org/2000/svg">
<path d="M2.2785 2.10191H2.34809L2.37227 2.03665C2.58171 1.47149 2.97045 0.981222 3.4858 0.634025C4.00122 0.286789 4.61761 0.1 5.25 0.1C5.88239 0.1 6.49878 0.286789 7.0142 0.634025C7.52955 0.981222 7.91829 1.47149 8.12773 2.03665L8.15191 2.10191H8.2215H15.75C16.0035 2.10191 16.2457 2.19783 16.4235 2.36714C16.6012 2.53629 16.7 2.76464 16.7 3.00163C16.7 3.23863 16.6012 3.46697 16.4235 3.63612C16.2457 3.80544 16.0035 3.90136 15.75 3.90136H8.2215H8.15191L8.12773 3.96661C7.91829 4.53177 7.52955 5.02204 7.0142 5.36924C6.49878 5.71648 5.88239 5.90327 5.25 5.90327C4.61761 5.90327 4.00122 5.71648 3.4858 5.36924C2.97045 5.02204 2.58171 4.53177 2.37227 3.96661L2.34809 3.90136H2.2785H1.05C0.796504 3.90136 0.554319 3.80544 0.376494 3.63612C0.198835 3.46697 0.1 3.23863 0.1 3.00163C0.1 2.76464 0.198835 2.53629 0.376494 2.36714C0.554319 2.19783 0.796504 2.10191 1.05 2.10191H2.2785ZM8.5785 8.10027H8.64809L8.67227 8.03502C8.88171 7.46986 9.27044 6.97959 9.7858 6.63239C10.3012 6.28515 10.9176 6.09837 11.55 6.09837C12.1824 6.09837 12.7988 6.28515 13.3142 6.63239C13.8296 6.97959 14.2183 7.46986 14.4277 8.03502L14.4519 8.10027H14.5215H15.75C16.0035 8.10027 16.2457 8.1962 16.4235 8.36551C16.6012 8.53466 16.7 8.763 16.7 9C16.7 9.237 16.6012 9.46534 16.4235 9.63449C16.2457 9.8038 16.0035 9.89973 15.75 9.89973H14.5215H14.4519L14.4277 9.96498C14.2183 10.5301 13.8296 11.0204 13.3142 11.3676C12.7988 11.7148 12.1824 11.9016 11.55 11.9016C10.9176 11.9016 10.3012 11.7148 9.7858 11.3676C9.27044 11.0204 8.88171 10.5301 8.67227 9.96498L8.64809 9.89973H8.5785H1.05C0.796505 9.89973 0.554319 9.8038 0.376494 9.63449C0.198835 9.46534 0.1 9.237 0.1 9C0.1 8.763 0.198835 8.53466 0.376494 8.36551C0.554319 8.1962 0.796504 8.10027 1.05 8.10027H8.5785ZM2.2785 14.0986H2.34809L2.37227 14.0334C2.58171 13.4682 2.97045 12.978 3.4858 12.6308C4.00122 12.2835 4.61761 12.0967 5.25 12.0967C5.88239 12.0967 6.49878 12.2835 7.0142 12.6308C7.52955 12.978 7.91829 13.4682 8.12773 14.0334L8.15191 14.0986H8.2215H15.75C16.0035 14.0986 16.2457 14.1946 16.4235 14.3639C16.6012 14.533 16.7 14.7614 16.7 14.9984C16.7 15.2354 16.6012 15.4637 16.4235 15.6329C16.2457 15.8022 16.0035 15.8981 15.75 15.8981H8.2215H8.15191L8.12773 15.9633C7.91829 16.5285 7.52955 17.0188 7.0142 17.366C6.49878 17.7132 5.88239 17.9 5.25 17.9C4.61761 17.9 4.00122 17.7132 3.4858 17.366C2.97045 17.0188 2.58171 16.5285 2.37227 15.9633L2.34809 15.8981H2.2785H1.05C0.796504 15.8981 0.554319 15.8022 0.376494 15.6329C0.198835 15.4637 0.1 15.2354 0.1 14.9984C0.1 14.7614 0.198835 14.533 0.376494 14.3639C0.554319 14.1946 0.796504 14.0986 1.05 14.0986H2.2785ZM5.25 1.90191C4.94654 1.90191 4.65458 2.01664 4.43858 2.2223C4.22241 2.42811 4.1 2.70834 4.1 3.00163C4.1 3.29493 4.22241 3.57515 4.43858 3.78097C4.65458 3.98663 4.94654 4.10136 5.25 4.10136C5.55346 4.10136 5.84542 3.98663 6.06142 3.78097C6.27759 3.57515 6.4 3.29493 6.4 3.00163C6.4 2.70834 6.27759 2.42811 6.06142 2.2223C5.84542 2.01664 5.55346 1.90191 5.25 1.90191ZM11.55 7.90027C11.2465 7.90027 10.9546 8.015 10.7386 8.22066C10.5224 8.42648 10.4 8.70671 10.4 9C10.4 9.29329 10.5224 9.57352 10.7386 9.77934C10.9546 9.985 11.2465 10.0997 11.55 10.0997C11.8535 10.0997 12.1454 9.985 12.3614 9.77934C12.5776 9.57352 12.7 9.29329 12.7 9C12.7 8.70671 12.5776 8.42648 12.3614 8.22066C12.1454 8.015 11.8535 7.90027 11.55 7.90027ZM5.25 13.8986C4.94654 13.8986 4.65458 14.0134 4.43858 14.219C4.22241 14.4248 4.1 14.7051 4.1 14.9984C4.1 15.2917 4.22241 15.5719 4.43858 15.7777C4.65458 15.9834 4.94654 16.0981 5.25 16.0981C5.55346 16.0981 5.84542 15.9834 6.06142 15.7777C6.27759 15.5719 6.4 15.2917 6.4 14.9984C6.4 14.7051 6.27759 14.4248 6.06142 14.219C5.84542 14.0134 5.55346 13.8986 5.25 13.8986Z" fill="#E8E8E8" stroke="#1D1E21" stroke-width="0.2"/>
</svg>
